<?xml version="1.0" standalone="no"?>
<!DOCTYPE svg PUBLIC "-//W3C//DTD SVG 20010904//EN"
 "http://www.w3.org/TR/2001/REC-SVG-20010904/DTD/svg10.dtd">
<svg version="1.0" xmlns="http://www.w3.org/2000/svg"
 width="361.000000pt" height="361.000000pt" viewBox="0 0 361.000000 361.000000"
 preserveAspectRatio="xMidYMid meet">
<metadata>
Created by potrace 1.14, written by Peter Selinger 2001-2017
</metadata>
<g transform="translate(0.000000,361.000000) scale(0.100000,-0.100000)"
fill="#000000" stroke="none">
<path d="M2360 3490 c-25 -10 -76 -35 -114 -56 -170 -97 -206 -113 -206 -91 0
8 -3 8 -8 2 -4 -6 -37 -10 -74 -10 -38 0 -68 -3 -68 -6 0 -3 -15 -6 -32 -6
-63 0 -120 -12 -160 -34 -12 -6 -18 -6 -18 2 0 8 -4 8 -13 0 -8 -6 -22 -12
-33 -14 -10 -2 -32 -9 -49 -16 -16 -7 -38 -13 -47 -14 -10 -1 -18 -5 -18 -9 0
-4 -9 -8 -20 -8 -11 0 -20 -4 -20 -8 0 -4 -10 -8 -22 -9 -11 -1 -25 -8 -29
-15 -5 -7 -9 -9 -9 -5 0 5 -12 0 -27 -11 -16 -10 -45 -26 -66 -36 -20 -9 -63
-42 -95 -73 -47 -45 -64 -56 -97 -59 -22 -1 -51 -5 -64 -8 -13 -3 -41 -6 -63
-8 -22 -1 -42 -6 -44 -10 -3 -5 -9 -6 -14 -3 -5 3 -30 0 -57 -6 -26 -6 -59
-13 -73 -14 -14 -2 -25 -4 -25 -5 0 -1 -8 -3 -17 -6 -10 -2 -26 -6 -35 -8 -10
-3 -23 -5 -29 -5 -5 -1 -19 -8 -30 -17 -10 -8 -13 -13 -6 -9 10 5 15 -11 11
-41 0 -4 3 -10 8 -13 13 -10 43 -68 43 -84 0 -8 7 -20 15 -27 8 -7 12 -16 9
-21 -3 -5 0 -9 7 -9 7 0 9 -3 6 -6 -4 -4 2 -19 13 -34 11 -16 20 -33 20 -39 0
-6 5 -11 10 -11 6 0 10 -5 10 -11 0 -7 10 -20 22 -30 11 -11 18 -19 13 -19 -4
0 7 -14 24 -32 17 -17 31 -37 31 -43 0 -6 -16 -30 -36 -53 -19 -23 -32 -42
-27 -42 4 0 0 -5 -9 -11 -10 -5 -18 -17 -18 -24 0 -8 -3 -15 -8 -15 -4 0 -18
-20 -32 -45 -14 -25 -28 -45 -31 -45 -4 0 -12 -12 -18 -27 -6 -16 -22 -46 -36
-68 -13 -21 -22 -42 -19 -46 2 -4 1 -9 -4 -11 -11 -4 -52 -93 -59 -129 -3 -16
-9 -29 -13 -29 -3 0 -7 -6 -8 -12 0 -7 -8 -40 -17 -73 -19 -69 -21 -75 -40
-171 -8 -40 -15 -88 -17 -108 -1 -20 -6 -36 -10 -36 -5 0 -4 -9 2 -20 6 -12 7
-20 1 -20 -5 0 -8 -75 -6 -187 3 -195 6 -228 32 -320 1 -7 4 -19 6 -25 1 -7 6
-19 10 -25 5 -7 6 -13 3 -13 -10 0 49 -156 103 -270 28 -60 84 -153 103 -172
10 -10 18 -21 18 -25 0 -5 11 -21 25 -38 76 -90 99 -115 106 -115 5 0 20 -11
35 -25 15 -14 33 -25 40 -25 7 0 14 -3 16 -7 4 -11 67 -43 84 -43 8 0 14 -5
14 -11 0 -6 7 -9 15 -5 8 3 15 2 15 -3 0 -7 34 -19 72 -25 3 -1 10 -4 14 -9 4
-4 17 -7 29 -7 12 0 25 -3 29 -7 4 -4 17 -8 29 -9 12 -1 38 -5 57 -8 90 -16
125 -18 260 -18 144 1 187 4 205 13 6 3 27 5 47 5 21 -1 38 3 38 8 0 5 3 7 6
4 3 -4 20 -2 37 4 18 5 41 11 52 12 11 2 28 7 38 11 10 4 26 9 35 10 10 1 31
7 47 14 17 7 40 14 52 14 13 1 23 5 23 8 0 6 31 17 68 25 7 1 30 11 51 22 22
12 42 18 45 15 3 -4 6 -1 6 5 0 10 20 20 45 23 6 1 22 10 38 21 15 11 27 17
27 14 0 -3 9 3 20 14 12 12 25 18 30 15 4 -3 10 -2 12 2 1 5 33 28 71 53 37
25 67 48 67 52 0 5 5 8 11 8 6 0 31 20 55 45 23 25 47 45 53 45 6 0 11 7 11
15 0 8 3 15 8 15 4 0 18 18 32 40 14 22 28 40 31 40 4 0 12 14 19 30 7 17 16
30 21 30 5 0 9 7 9 15 0 8 4 15 8 15 5 0 17 6 27 14 17 12 17 15 3 29 -9 9
-19 13 -23 9 -5 -4 -5 -1 -1 6 6 11 11 11 24 0 15 -12 15 -11 1 12 -12 18 -15
42 -13 85 8 122 1 290 -12 304 -2 2 2 11 8 20 7 9 8 12 3 8 -8 -7 -32 70 -37
121 -1 6 -4 12 -8 12 -3 0 -7 10 -7 22 -1 13 -7 24 -13 26 -5 2 -8 7 -5 12 3
4 -12 41 -32 81 -20 41 -36 77 -35 82 1 4 -2 7 -6 7 -5 0 -20 21 -33 48 -13
26 -32 56 -41 66 -10 11 -18 24 -18 28 0 5 -11 21 -24 35 -26 28 -26 54 0 111
9 19 13 36 10 39 -3 4 -1 12 4 19 6 6 12 28 14 46 2 19 6 40 10 46 8 13 8 188
1 252 -3 25 -7 53 -8 63 -1 9 -5 17 -9 17 -4 0 -5 7 -2 15 3 8 2 20 -2 27 -5
7 -10 24 -12 38 -2 13 -6 27 -10 30 -4 3 -8 16 -10 30 -3 28 -9 43 -43 114
-13 27 -24 52 -25 55 -2 17 -40 91 -46 91 -5 0 -8 7 -8 16 0 9 -7 28 -14 42
-38 69 -45 99 -44 192 1 140 -4 223 -14 244 -7 13 -7 16 2 11 9 -6 9 -3 1 13
-6 11 -11 30 -11 41 0 12 -4 21 -8 21 -4 0 -8 9 -9 20 -2 30 -34 90 -52 99
-10 6 -32 2 -61 -9z"/>
</g>
</svg>
